<?xml version="1.0" encoding="UTF-8" standalone="no"?>
<!DOCTYPE svg PUBLIC "-//W3C//DTD SVG 1.1//EN"
 "http://www.w3.org/Graphics/SVG/1.1/DTD/svg11.dtd">
<!-- Generated by graphviz version 2.40.1 (20161225.0304)
 -->
<!-- Title: techcompanies Pages: 1 -->
<svg width="432pt" height="105pt"
 viewBox="0.00 0.00 432.00 105.48" xmlns="http://www.w3.org/2000/svg" xmlns:xlink="http://www.w3.org/1999/xlink">
<g id="graph0" class="graph" transform="scale(.365 .365) rotate(0) translate(4 285)">
<title>techcompanies</title>
<polygon fill="#ffffff" stroke="transparent" points="-4,4 -4,-285 1179.5979,-285 1179.5979,4 -4,4"/>
<!-- Apollo -->
<g id="node1" class="node">
<title>Apollo</title>
<ellipse fill="#b2dfee" stroke="#b2dfee" cx="88.9337" cy="-263" rx="34.8458" ry="18"/>
<text text-anchor="middle" x="88.9337" y="-258.8" font-family="Times,serif" font-size="14.00" fill="#000000">Apollo</text>
</g>
<!-- Hewlett&#45;Packard (HP) -->
<g id="node2" class="node">
<title>Hewlett&#45;Packard (HP)</title>
<ellipse fill="#b2dfee" stroke="#b2dfee" cx="88.9337" cy="-190" rx="88.8675" ry="18"/>
<text text-anchor="middle" x="88.9337" y="-185.8" font-family="Times,serif" font-size="14.00" fill="#000000">Hewlett&#45;Packard (HP)</text>
</g>
<!-- Apollo&#45;&gt;Hewlett&#45;Packard (HP) -->
<g id="edge1" class="edge">
<title>Apollo&#45;&gt;Hewlett&#45;Packard (HP)</title>
<path fill="none" stroke="#000000" d="M88.9337,-244.9551C88.9337,-236.8828 88.9337,-227.1764 88.9337,-218.1817"/>
<polygon fill="#000000" stroke="#000000" points="92.4338,-218.0903 88.9337,-208.0904 85.4338,-218.0904 92.4338,-218.0903"/>
</g>
<!-- ... -->
<g id="node4" class="node">
<title>...</title>
<ellipse fill="#b2dfee" stroke="#b2dfee" cx="253.9337" cy="-104" rx="27" ry="18"/>
<text text-anchor="middle" x="253.9337" y="-99.8" font-family="Times,serif" font-size="14.00" fill="#000000">...</text>
</g>
<!-- Hewlett&#45;Packard (HP)&#45;&gt;... -->
<g id="edge3" class="edge">
<title>Hewlett&#45;Packard (HP)&#45;&gt;...</title>
<path fill="none" stroke="#000000" d="M121.1391,-173.2142C150.7583,-157.7763 194.3638,-135.0486 223.4313,-119.8982"/>
<polygon fill="#000000" stroke="#000000" points="225.0717,-122.9902 232.3218,-115.2644 221.8363,-116.7827 225.0717,-122.9902"/>
</g>
<!-- Digital Equipment Corp (DEC) -->
<g id="node3" class="node">
<title>Digital Equipment Corp (DEC)</title>
<ellipse fill="#b2dfee" stroke="#b2dfee" cx="316.9337" cy="-190" rx="121.2427" ry="18"/>
<text text-anchor="middle" x="316.9337" y="-185.8" font-family="Times,serif" font-size="14.00" fill="#000000">Digital Equipment Corp (DEC)</text>
</g>
<!-- Digital Equipment Corp (DEC)&#45;&gt;... -->
<g id="edge2" class="edge">
<title>Digital Equipment Corp (DEC)&#45;&gt;...</title>
<path fill="none" stroke="#000000" d="M303.573,-171.7616C294.3005,-159.1039 281.847,-142.1038 271.7335,-128.2981"/>
<polygon fill="#000000" stroke="#000000" points="274.5212,-126.1809 265.7882,-120.1823 268.8743,-130.3177 274.5212,-126.1809"/>
</g>
<!-- Apple -->
<g id="node5" class="node">
<title>Apple</title>
<ellipse fill="#b2dfee" stroke="#b2dfee" cx="434.9337" cy="-263" rx="31.9393" ry="18"/>
<text text-anchor="middle" x="434.9337" y="-258.8" font-family="Times,serif" font-size="14.00" fill="#000000">Apple</text>
</g>
<!-- Bar -->
<g id="node6" class="node">
<title>Bar</title>
<ellipse fill="#b2dfee" stroke="#b2dfee" cx="482.9337" cy="-190" rx="27" ry="18"/>
<text text-anchor="middle" x="482.9337" y="-185.8" font-family="Times,serif" font-size="14.00" fill="#000000">Bar</text>
</g>
<!-- Apple&#45;&gt;Bar -->
<g id="edge4" class="edge">
<title>Apple&#45;&gt;Bar</title>
<path fill="none" stroke="#000000" d="M446.0665,-246.0688C452.107,-236.8823 459.6914,-225.3477 466.4081,-215.1326"/>
<polygon fill="#000000" stroke="#000000" points="469.4571,-216.8662 472.0268,-206.5877 463.6082,-213.0203 469.4571,-216.8662"/>
</g>
<!-- Microsoft -->
<g id="node7" class="node">
<title>Microsoft</title>
<ellipse fill="#b2dfee" stroke="#b2dfee" cx="529.9337" cy="-263" rx="44.9682" ry="18"/>
<text text-anchor="middle" x="529.9337" y="-258.8" font-family="Times,serif" font-size="14.00" fill="#000000">Microsoft</text>
</g>
<!-- Microsoft&#45;&gt;Bar -->
<g id="edge5" class="edge">
<title>Microsoft&#45;&gt;Bar</title>
<path fill="none" stroke="#000000" d="M518.5563,-245.3287C512.8155,-236.4121 505.7455,-225.4311 499.4214,-215.6085"/>
<polygon fill="#000000" stroke="#000000" points="502.239,-213.5192 493.8827,-207.0059 496.3533,-217.3086 502.239,-213.5192"/>
</g>
<!-- Sun Microsystems -->
<g id="node8" class="node">
<title>Sun Microsystems</title>
<ellipse fill="#b2dfee" stroke="#b2dfee" cx="668.9337" cy="-263" rx="75.898" ry="18"/>
<text text-anchor="middle" x="668.9337" y="-258.8" font-family="Times,serif" font-size="14.00" fill="#000000">Sun Microsystems</text>
</g>
<!-- Oracle -->
<g id="node9" class="node">
<title>Oracle</title>
<ellipse fill="#b2dfee" stroke="#b2dfee" cx="668.9337" cy="-190" rx="33.8422" ry="18"/>
<text text-anchor="middle" x="668.9337" y="-185.8" font-family="Times,serif" font-size="14.00" fill="#000000">Oracle</text>
</g>
<!-- Sun Microsystems&#45;&gt;Oracle -->
<g id="edge6" class="edge">
<title>Sun Microsystems&#45;&gt;Oracle</title>
<path fill="none" stroke="#000000" d="M668.9337,-244.9551C668.9337,-236.8828 668.9337,-227.1764 668.9337,-218.1817"/>
<polygon fill="#000000" stroke="#000000" points="672.4338,-218.0903 668.9337,-208.0904 665.4338,-218.0904 672.4338,-218.0903"/>
</g>
<!-- Palm -->
<g id="node10" class="node">
<title>Palm</title>
<ellipse fill="#b2dfee" stroke="#b2dfee" cx="790.9337" cy="-263" rx="28.0736" ry="18"/>
<text text-anchor="middle" x="790.9337" y="-258.8" font-family="Times,serif" font-size="14.00" fill="#000000">Palm</text>
</g>
<!-- 3com -->
<g id="node11" class="node">
<title>3com</title>
<ellipse fill="#b2dfee" stroke="#b2dfee" cx="790.9337" cy="-190" rx="29.5104" ry="18"/>
<text text-anchor="middle" x="790.9337" y="-185.8" font-family="Times,serif" font-size="14.00" fill="#000000">3com</text>
</g>
<!-- Palm&#45;&gt;3com -->
<g id="edge7" class="edge">
<title>Palm&#45;&gt;3com</title>
<path fill="none" stroke="#000000" d="M790.9337,-244.9551C790.9337,-236.8828 790.9337,-227.1764 790.9337,-218.1817"/>
<polygon fill="#000000" stroke="#000000" points="794.4338,-218.0903 790.9337,-208.0904 787.4338,-218.0904 794.4338,-218.0903"/>
</g>
<!-- Commodore -->
<g id="node12" class="node">
<title>Commodore</title>
<ellipse fill="#b2dfee" stroke="#b2dfee" cx="891.9337" cy="-263" rx="54.1403" ry="18"/>
<text text-anchor="middle" x="891.9337" y="-258.8" font-family="Times,serif" font-size="14.00" fill="#000000">Commodore</text>
</g>
<!-- Various -->
<g id="node13" class="node">
<title>Various</title>
<ellipse fill="#b2dfee" stroke="#b2dfee" cx="891.9337" cy="-190" rx="37.2507" ry="18"/>
<text text-anchor="middle" x="891.9337" y="-185.8" font-family="Times,serif" font-size="14.00" fill="#000000">Various</text>
</g>
<!-- Commodore&#45;&gt;Various -->
<g id="edge8" class="edge">
<title>Commodore&#45;&gt;Various</title>
<path fill="none" stroke="#000000" d="M891.9337,-244.9551C891.9337,-236.8828 891.9337,-227.1764 891.9337,-218.1817"/>
<polygon fill="#000000" stroke="#000000" points="895.4338,-218.0903 891.9337,-208.0904 888.4338,-218.0904 895.4338,-218.0903"/>
</g>
<!-- Atari Inc -->
<g id="node14" class="node">
<title>Atari Inc</title>
<ellipse fill="#b2dfee" stroke="#b2dfee" cx="1005.9337" cy="-263" rx="41.5613" ry="18"/>
<text text-anchor="middle" x="1005.9337" y="-258.8" font-family="Times,serif" font-size="14.00" fill="#000000">Atari Inc</text>
</g>
<!-- Atari Corp -->
<g id="node15" class="node">
<title>Atari Corp</title>
<ellipse fill="#b2dfee" stroke="#b2dfee" cx="1005.9337" cy="-190" rx="48.351" ry="18"/>
<text text-anchor="middle" x="1005.9337" y="-185.8" font-family="Times,serif" font-size="14.00" fill="#000000">Atari Corp</text>
</g>
<!-- Atari Inc&#45;&gt;Atari Corp -->
<g id="edge9" class="edge">
<title>Atari Inc&#45;&gt;Atari Corp</title>
<path fill="none" stroke="#000000" d="M1005.9337,-244.9551C1005.9337,-236.8828 1005.9337,-227.1764 1005.9337,-218.1817"/>
<polygon fill="#000000" stroke="#000000" points="1009.4338,-218.0903 1005.9337,-208.0904 1002.4338,-218.0904 1009.4338,-218.0903"/>
</g>
<!-- JTS Corp -->
<g id="node16" class="node">
<title>JTS Corp</title>
<ellipse fill="#b2dfee" stroke="#b2dfee" cx="962.9337" cy="-104" rx="43.534" ry="18"/>
<text text-anchor="middle" x="962.9337" y="-99.8" font-family="Times,serif" font-size="14.00" fill="#000000">JTS Corp</text>
</g>
<!-- Atari Corp&#45;&gt;JTS Corp -->
<g id="edge10" class="edge">
<title>Atari Corp&#45;&gt;JTS Corp</title>
<path fill="none" stroke="#000000" d="M997.0241,-172.1807C991.0856,-160.3038 983.1685,-144.4695 976.4587,-131.05"/>
<polygon fill="#000000" stroke="#000000" points="979.4346,-129.1754 971.8319,-121.7964 973.1736,-132.306 979.4346,-129.1754"/>
</g>
<!-- Hasbro Interactive -->
<g id="node17" class="node">
<title>Hasbro Interactive</title>
<ellipse fill="#b2dfee" stroke="#b2dfee" cx="1099.9337" cy="-104" rx="75.8287" ry="18"/>
<text text-anchor="middle" x="1099.9337" y="-99.8" font-family="Times,serif" font-size="14.00" fill="#000000">Hasbro Interactive</text>
</g>
<!-- Atari Corp&#45;&gt;Hasbro Interactive -->
<g id="edge11" class="edge">
<title>Atari Corp&#45;&gt;Hasbro Interactive</title>
<path fill="none" stroke="#000000" d="M1024.5051,-173.0092C1038.3562,-160.3369 1057.4837,-142.8373 1073.011,-128.6314"/>
<polygon fill="#000000" stroke="#000000" points="1075.74,-130.8785 1080.7556,-121.546 1071.0149,-125.7138 1075.74,-130.8785"/>
<text text-anchor="middle" x="1071.9337" y="-142.8" font-family="Times,serif" font-size="14.00" fill="#000000">1998</text>
</g>
<!-- Infogrames -->
<g id="node18" class="node">
<title>Infogrames</title>
<ellipse fill="#b2dfee" stroke="#b2dfee" cx="1099.9337" cy="-18" rx="50.2551" ry="18"/>
<text text-anchor="middle" x="1099.9337" y="-13.8" font-family="Times,serif" font-size="14.00" fill="#000000">Infogrames</text>
</g>
<!-- Hasbro Interactive&#45;&gt;Infogrames -->
<g id="edge12" class="edge">
<title>Hasbro Interactive&#45;&gt;Infogrames</title>
<path fill="none" stroke="#000000" d="M1099.9337,-85.7616C1099.9337,-74.3597 1099.9337,-59.4342 1099.9337,-46.494"/>
<polygon fill="#000000" stroke="#000000" points="1103.4338,-46.2121 1099.9337,-36.2121 1096.4338,-46.2121 1103.4338,-46.2121"/>
<text text-anchor="middle" x="1113.9337" y="-56.8" font-family="Times,serif" font-size="14.00" fill="#000000">2000</text>
</g>
</g>
</svg>
