<?xml version="1.0" encoding="UTF-8" standalone="no"?>
<!DOCTYPE svg PUBLIC "-//W3C//DTD SVG 1.1//EN"
 "http://www.w3.org/Graphics/SVG/1.1/DTD/svg11.dtd">
<!-- Generated by graphviz version 2.40.1 (20161225.0304)
 -->
<!-- Title: techcompanies Pages: 1 -->
<svg width="432pt" height="89pt"
 viewBox="0.00 0.00 432.00 89.27" xmlns="http://www.w3.org/2000/svg" xmlns:xlink="http://www.w3.org/1999/xlink">
<g id="graph0" class="graph" transform="scale(.2956 .2956) rotate(0) translate(4 298)">
<title>techcompanies</title>
<polygon fill="#ffffff" stroke="transparent" points="-4,4 -4,-298 1457.4759,-298 1457.4759,4 -4,4"/>
<!-- Apollo -->
<g id="node1" class="node">
<title>Apollo</title>
<ellipse fill="#b2dfee" stroke="#b2dfee" cx="64.9337" cy="-190" rx="34.8458" ry="18"/>
<text text-anchor="middle" x="64.9337" y="-185.8" font-family="Times,serif" font-size="14.00" fill="#000000">Apollo</text>
</g>
<!-- Hewlett&#45;Packard (HP) -->
<g id="node2" class="node">
<title>Hewlett&#45;Packard (HP)</title>
<ellipse fill="#b2dfee" stroke="#b2dfee" cx="88.9337" cy="-104" rx="88.8675" ry="18"/>
<text text-anchor="middle" x="88.9337" y="-99.8" font-family="Times,serif" font-size="14.00" fill="#000000">Hewlett&#45;Packard (HP)</text>
</g>
<!-- Apollo&#45;&gt;Hewlett&#45;Packard (HP) -->
<g id="edge1" class="edge">
<title>Apollo&#45;&gt;Hewlett&#45;Packard (HP)</title>
<path fill="none" stroke="#000000" d="M69.9065,-172.1807C73.135,-160.612 77.4113,-145.2888 81.0919,-132.0997"/>
<polygon fill="#000000" stroke="#000000" points="84.5678,-132.6651 83.8847,-122.0923 77.8254,-130.7835 84.5678,-132.6651"/>
</g>
<!-- Digital Equipment Corp (DEC) -->
<g id="node3" class="node">
<title>Digital Equipment Corp (DEC)</title>
<ellipse fill="#b2dfee" stroke="#b2dfee" cx="157.9337" cy="-276" rx="121.2427" ry="18"/>
<text text-anchor="middle" x="157.9337" y="-271.8" font-family="Times,serif" font-size="14.00" fill="#000000">Digital Equipment Corp (DEC)</text>
</g>
<!-- Compaq -->
<g id="node4" class="node">
<title>Compaq</title>
<ellipse fill="#b2dfee" stroke="#b2dfee" cx="157.9337" cy="-190" rx="40.149" ry="18"/>
<text text-anchor="middle" x="157.9337" y="-185.8" font-family="Times,serif" font-size="14.00" fill="#000000">Compaq</text>
</g>
<!-- Digital Equipment Corp (DEC)&#45;&gt;Compaq -->
<g id="edge2" class="edge">
<title>Digital Equipment Corp (DEC)&#45;&gt;Compaq</title>
<path fill="none" stroke="#000000" d="M157.9337,-257.7616C157.9337,-246.3597 157.9337,-231.4342 157.9337,-218.494"/>
<polygon fill="#000000" stroke="#000000" points="161.4338,-218.2121 157.9337,-208.2121 154.4338,-218.2121 161.4338,-218.2121"/>
<text text-anchor="middle" x="171.9337" y="-228.8" font-family="Times,serif" font-size="14.00" fill="#000000">1998</text>
</g>
<!-- Compaq&#45;&gt;Hewlett&#45;Packard (HP) -->
<g id="edge3" class="edge">
<title>Compaq&#45;&gt;Hewlett&#45;Packard (HP)</title>
<path fill="none" stroke="#000000" d="M144.3015,-173.0092C134.3865,-160.6513 120.7881,-143.7025 109.5491,-129.6946"/>
<polygon fill="#000000" stroke="#000000" points="112.2382,-127.4533 103.2502,-121.8437 106.7783,-131.8339 112.2382,-127.4533"/>
<text text-anchor="middle" x="141.9337" y="-142.8" font-family="Times,serif" font-size="14.00" fill="#000000">2002</text>
</g>
<!-- Apple -->
<g id="node5" class="node">
<title>Apple</title>
<ellipse fill="#b2dfee" stroke="#b2dfee" cx="328.9337" cy="-276" rx="31.9393" ry="18"/>
<text text-anchor="middle" x="328.9337" y="-271.8" font-family="Times,serif" font-size="14.00" fill="#000000">Apple</text>
</g>
<!-- Bar -->
<g id="node6" class="node">
<title>Bar</title>
<ellipse fill="#b2dfee" stroke="#b2dfee" cx="375.9337" cy="-190" rx="27" ry="18"/>
<text text-anchor="middle" x="375.9337" y="-185.8" font-family="Times,serif" font-size="14.00" fill="#000000">Bar</text>
</g>
<!-- Apple&#45;&gt;Bar -->
<g id="edge4" class="edge">
<title>Apple&#45;&gt;Bar</title>
<path fill="none" stroke="#000000" d="M338.4449,-258.5966C345.1138,-246.3939 354.1459,-229.867 361.6736,-216.093"/>
<polygon fill="#000000" stroke="#000000" points="364.8727,-217.5376 366.5971,-207.084 358.7301,-214.1806 364.8727,-217.5376"/>
</g>
<!-- Microsoft -->
<g id="node7" class="node">
<title>Microsoft</title>
<ellipse fill="#b2dfee" stroke="#b2dfee" cx="423.9337" cy="-276" rx="44.9682" ry="18"/>
<text text-anchor="middle" x="423.9337" y="-271.8" font-family="Times,serif" font-size="14.00" fill="#000000">Microsoft</text>
</g>
<!-- Microsoft&#45;&gt;Bar -->
<g id="edge5" class="edge">
<title>Microsoft&#45;&gt;Bar</title>
<path fill="none" stroke="#000000" d="M413.9881,-258.1807C407.1609,-245.9486 397.9908,-229.519 390.3632,-215.8528"/>
<polygon fill="#000000" stroke="#000000" points="393.3066,-213.9449 385.3767,-206.9187 387.1942,-217.3565 393.3066,-213.9449"/>
</g>
<!-- Sun Microsystems -->
<g id="node8" class="node">
<title>Sun Microsystems</title>
<ellipse fill="#b2dfee" stroke="#b2dfee" cx="562.9337" cy="-276" rx="75.898" ry="18"/>
<text text-anchor="middle" x="562.9337" y="-271.8" font-family="Times,serif" font-size="14.00" fill="#000000">Sun Microsystems</text>
</g>
<!-- Oracle -->
<g id="node9" class="node">
<title>Oracle</title>
<ellipse fill="#b2dfee" stroke="#b2dfee" cx="562.9337" cy="-190" rx="33.8422" ry="18"/>
<text text-anchor="middle" x="562.9337" y="-185.8" font-family="Times,serif" font-size="14.00" fill="#000000">Oracle</text>
</g>
<!-- Sun Microsystems&#45;&gt;Oracle -->
<g id="edge6" class="edge">
<title>Sun Microsystems&#45;&gt;Oracle</title>
<path fill="none" stroke="#000000" d="M562.9337,-257.7616C562.9337,-246.3597 562.9337,-231.4342 562.9337,-218.494"/>
<polygon fill="#000000" stroke="#000000" points="566.4338,-218.2121 562.9337,-208.2121 559.4338,-218.2121 566.4338,-218.2121"/>
<text text-anchor="middle" x="576.9337" y="-228.8" font-family="Times,serif" font-size="14.00" fill="#000000">2009</text>
</g>
<!-- Palm -->
<g id="node10" class="node">
<title>Palm</title>
<ellipse fill="#b2dfee" stroke="#b2dfee" cx="684.9337" cy="-276" rx="28.0736" ry="18"/>
<text text-anchor="middle" x="684.9337" y="-271.8" font-family="Times,serif" font-size="14.00" fill="#000000">Palm</text>
</g>
<!-- 3com -->
<g id="node11" class="node">
<title>3com</title>
<ellipse fill="#b2dfee" stroke="#b2dfee" cx="684.9337" cy="-190" rx="29.5104" ry="18"/>
<text text-anchor="middle" x="684.9337" y="-185.8" font-family="Times,serif" font-size="14.00" fill="#000000">3com</text>
</g>
<!-- Palm&#45;&gt;3com -->
<g id="edge7" class="edge">
<title>Palm&#45;&gt;3com</title>
<path fill="none" stroke="#000000" d="M684.9337,-257.7616C684.9337,-246.3597 684.9337,-231.4342 684.9337,-218.494"/>
<polygon fill="#000000" stroke="#000000" points="688.4338,-218.2121 684.9337,-208.2121 681.4338,-218.2121 688.4338,-218.2121"/>
</g>
<!-- Commodore -->
<g id="node12" class="node">
<title>Commodore</title>
<ellipse fill="#b2dfee" stroke="#b2dfee" cx="785.9337" cy="-276" rx="54.1403" ry="18"/>
<text text-anchor="middle" x="785.9337" y="-271.8" font-family="Times,serif" font-size="14.00" fill="#000000">Commodore</text>
</g>
<!-- Various -->
<g id="node13" class="node">
<title>Various</title>
<ellipse fill="#b2dfee" stroke="#b2dfee" cx="785.9337" cy="-190" rx="37.2507" ry="18"/>
<text text-anchor="middle" x="785.9337" y="-185.8" font-family="Times,serif" font-size="14.00" fill="#000000">Various</text>
</g>
<!-- Commodore&#45;&gt;Various -->
<g id="edge8" class="edge">
<title>Commodore&#45;&gt;Various</title>
<path fill="none" stroke="#000000" d="M785.9337,-257.7616C785.9337,-246.3597 785.9337,-231.4342 785.9337,-218.494"/>
<polygon fill="#000000" stroke="#000000" points="789.4338,-218.2121 785.9337,-208.2121 782.4338,-218.2121 789.4338,-218.2121"/>
</g>
<!-- Atari Inc -->
<g id="node14" class="node">
<title>Atari Inc</title>
<ellipse fill="#b2dfee" stroke="#b2dfee" cx="899.9337" cy="-276" rx="41.5613" ry="18"/>
<text text-anchor="middle" x="899.9337" y="-271.8" font-family="Times,serif" font-size="14.00" fill="#000000">Atari Inc</text>
</g>
<!-- Atari Corp -->
<g id="node15" class="node">
<title>Atari Corp</title>
<ellipse fill="#b2dfee" stroke="#b2dfee" cx="899.9337" cy="-190" rx="48.351" ry="18"/>
<text text-anchor="middle" x="899.9337" y="-185.8" font-family="Times,serif" font-size="14.00" fill="#000000">Atari Corp</text>
</g>
<!-- Atari Inc&#45;&gt;Atari Corp -->
<g id="edge9" class="edge">
<title>Atari Inc&#45;&gt;Atari Corp</title>
<path fill="none" stroke="#000000" d="M899.9337,-257.7616C899.9337,-246.3597 899.9337,-231.4342 899.9337,-218.494"/>
<polygon fill="#000000" stroke="#000000" points="903.4338,-218.2121 899.9337,-208.2121 896.4338,-218.2121 903.4338,-218.2121"/>
<text text-anchor="middle" x="913.9337" y="-228.8" font-family="Times,serif" font-size="14.00" fill="#000000">1984</text>
</g>
<!-- JTS Corp -->
<g id="node16" class="node">
<title>JTS Corp</title>
<ellipse fill="#b2dfee" stroke="#b2dfee" cx="852.9337" cy="-104" rx="43.534" ry="18"/>
<text text-anchor="middle" x="852.9337" y="-99.8" font-family="Times,serif" font-size="14.00" fill="#000000">JTS Corp</text>
</g>
<!-- Atari Corp&#45;&gt;JTS Corp -->
<g id="edge10" class="edge">
<title>Atari Corp&#45;&gt;JTS Corp</title>
<path fill="none" stroke="#000000" d="M890.1953,-172.1807C883.6414,-160.1885 874.8825,-144.1617 867.5036,-130.6598"/>
<polygon fill="#000000" stroke="#000000" points="870.5267,-128.893 862.6597,-121.7964 864.3841,-132.25 870.5267,-128.893"/>
<text text-anchor="middle" x="893.9337" y="-142.8" font-family="Times,serif" font-size="14.00" fill="#000000">1996</text>
</g>
<!-- Hasbro Interactive -->
<g id="node17" class="node">
<title>Hasbro Interactive</title>
<ellipse fill="#b2dfee" stroke="#b2dfee" cx="989.9337" cy="-104" rx="75.8287" ry="18"/>
<text text-anchor="middle" x="989.9337" y="-99.8" font-family="Times,serif" font-size="14.00" fill="#000000">Hasbro Interactive</text>
</g>
<!-- Atari Corp&#45;&gt;Hasbro Interactive -->
<g id="edge11" class="edge">
<title>Atari Corp&#45;&gt;Hasbro Interactive</title>
<path fill="none" stroke="#000000" d="M917.7148,-173.0092C930.9765,-160.3369 949.2901,-142.8373 964.1566,-128.6314"/>
<polygon fill="#000000" stroke="#000000" points="966.7597,-130.9851 971.5717,-121.546 961.9237,-125.9241 966.7597,-130.9851"/>
<text text-anchor="middle" x="964.9337" y="-142.8" font-family="Times,serif" font-size="14.00" fill="#000000">1998</text>
</g>
<!-- Infogrames -->
<g id="node18" class="node">
<title>Infogrames</title>
<ellipse fill="#b2dfee" stroke="#b2dfee" cx="989.9337" cy="-18" rx="50.2551" ry="18"/>
<text text-anchor="middle" x="989.9337" y="-13.8" font-family="Times,serif" font-size="14.00" fill="#000000">Infogrames</text>
</g>
<!-- Hasbro Interactive&#45;&gt;Infogrames -->
<g id="edge12" class="edge">
<title>Hasbro Interactive&#45;&gt;Infogrames</title>
<path fill="none" stroke="#000000" d="M989.9337,-85.7616C989.9337,-74.3597 989.9337,-59.4342 989.9337,-46.494"/>
<polygon fill="#000000" stroke="#000000" points="993.4338,-46.2121 989.9337,-36.2121 986.4338,-46.2121 993.4338,-46.2121"/>
<text text-anchor="middle" x="1003.9337" y="-56.8" font-family="Times,serif" font-size="14.00" fill="#000000">2000</text>
</g>
<!-- Silicon Graphics Inc (SGI) -->
<g id="node19" class="node">
<title>Silicon Graphics Inc (SGI)</title>
<ellipse fill="#b2dfee" stroke="#b2dfee" cx="1064.9337" cy="-276" rx="105.3052" ry="18"/>
<text text-anchor="middle" x="1064.9337" y="-271.8" font-family="Times,serif" font-size="14.00" fill="#000000">Silicon Graphics Inc (SGI)</text>
</g>
<!-- Rackable Systems -->
<g id="node20" class="node">
<title>Rackable Systems</title>
<ellipse fill="#b2dfee" stroke="#b2dfee" cx="1064.9337" cy="-190" rx="74.9031" ry="18"/>
<text text-anchor="middle" x="1064.9337" y="-185.8" font-family="Times,serif" font-size="14.00" fill="#000000">Rackable Systems</text>
</g>
<!-- Silicon Graphics Inc (SGI)&#45;&gt;Rackable Systems -->
<g id="edge13" class="edge">
<title>Silicon Graphics Inc (SGI)&#45;&gt;Rackable Systems</title>
<path fill="none" stroke="#000000" d="M1064.9337,-257.7616C1064.9337,-246.3597 1064.9337,-231.4342 1064.9337,-218.494"/>
<polygon fill="#000000" stroke="#000000" points="1068.4338,-218.2121 1064.9337,-208.2121 1061.4338,-218.2121 1068.4338,-218.2121"/>
<text text-anchor="middle" x="1078.9337" y="-228.8" font-family="Times,serif" font-size="14.00" fill="#000000">2009</text>
</g>
<!-- IBM -->
<g id="node21" class="node">
<title>IBM</title>
<ellipse fill="#b2dfee" stroke="#b2dfee" cx="1214.9337" cy="-276" rx="27" ry="18"/>
<text text-anchor="middle" x="1214.9337" y="-271.8" font-family="Times,serif" font-size="14.00" fill="#000000">IBM</text>
</g>
<!-- ... -->
<g id="node22" class="node">
<title>...</title>
<ellipse fill="#b2dfee" stroke="#b2dfee" cx="1214.9337" cy="-190" rx="27" ry="18"/>
<text text-anchor="middle" x="1214.9337" y="-185.8" font-family="Times,serif" font-size="14.00" fill="#000000">...</text>
</g>
<!-- IBM&#45;&gt;... -->
<g id="edge14" class="edge">
<title>IBM&#45;&gt;...</title>
<path fill="none" stroke="#000000" d="M1214.9337,-257.7616C1214.9337,-246.3597 1214.9337,-231.4342 1214.9337,-218.494"/>
<polygon fill="#000000" stroke="#000000" points="1218.4338,-218.2121 1214.9337,-208.2121 1211.4338,-218.2121 1218.4338,-218.2121"/>
</g>
<!-- Geophysical Service Inc -->
<g id="node23" class="node">
<title>Geophysical Service Inc</title>
<ellipse fill="#b2dfee" stroke="#b2dfee" cx="1356.9337" cy="-276" rx="96.5844" ry="18"/>
<text text-anchor="middle" x="1356.9337" y="-271.8" font-family="Times,serif" font-size="14.00" fill="#000000">Geophysical Service Inc</text>
</g>
<!-- Texas Instruments -->
<g id="node24" class="node">
<title>Texas Instruments</title>
<ellipse fill="#b2dfee" stroke="#b2dfee" cx="1356.9337" cy="-190" rx="74.6435" ry="18"/>
<text text-anchor="middle" x="1356.9337" y="-185.8" font-family="Times,serif" font-size="14.00" fill="#000000">Texas Instruments</text>
</g>
<!-- Geophysical Service Inc&#45;&gt;Texas Instruments -->
<g id="edge15" class="edge">
<title>Geophysical Service Inc&#45;&gt;Texas Instruments</title>
<path fill="none" stroke="#000000" d="M1356.9337,-257.7616C1356.9337,-246.3597 1356.9337,-231.4342 1356.9337,-218.494"/>
<polygon fill="#000000" stroke="#000000" points="1360.4338,-218.2121 1356.9337,-208.2121 1353.4338,-218.2121 1360.4338,-218.2121"/>
<text text-anchor="middle" x="1370.9337" y="-228.8" font-family="Times,serif" font-size="14.00" fill="#000000">1951</text>
</g>
</g>
</svg>
