<?xml version="1.0" encoding="UTF-8" standalone="no"?>
<!DOCTYPE svg PUBLIC "-//W3C//DTD SVG 1.1//EN"
 "http://www.w3.org/Graphics/SVG/1.1/DTD/svg11.dtd">
<!-- Generated by graphviz version 2.40.1 (20161225.0304)
 -->
<!-- Title: techcompanies Pages: 1 -->
<svg width="432pt" height="101pt"
 viewBox="0.00 0.00 432.00 100.57" xmlns="http://www.w3.org/2000/svg" xmlns:xlink="http://www.w3.org/1999/xlink">
<g id="graph0" class="graph" transform="scale(.3644 .3644) rotate(0) translate(4 272)">
<title>techcompanies</title>
<polygon fill="#ffffff" stroke="transparent" points="-4,4 -4,-272 1181.5979,-272 1181.5979,4 -4,4"/>
<!-- Apollo -->
<g id="node1" class="node">
<title>Apollo</title>
<ellipse fill="#b2dfee" stroke="#b2dfee" cx="88.9337" cy="-250" rx="34.8458" ry="18"/>
<text text-anchor="middle" x="88.9337" y="-245.8" font-family="Times,serif" font-size="14.00" fill="#000000">Apollo</text>
</g>
<!-- Hewlett&#45;Packard (HP) -->
<g id="node2" class="node">
<title>Hewlett&#45;Packard (HP)</title>
<ellipse fill="#b2dfee" stroke="#b2dfee" cx="88.9337" cy="-177" rx="88.8675" ry="18"/>
<text text-anchor="middle" x="88.9337" y="-172.8" font-family="Times,serif" font-size="14.00" fill="#000000">Hewlett&#45;Packard (HP)</text>
</g>
<!-- Apollo&#45;&gt;Hewlett&#45;Packard (HP) -->
<g id="edge1" class="edge">
<title>Apollo&#45;&gt;Hewlett&#45;Packard (HP)</title>
<path fill="none" stroke="#000000" d="M88.9337,-231.9551C88.9337,-223.8828 88.9337,-214.1764 88.9337,-205.1817"/>
<polygon fill="#000000" stroke="#000000" points="92.4338,-205.0903 88.9337,-195.0904 85.4338,-205.0904 92.4338,-205.0903"/>
</g>
<!-- ... -->
<g id="node4" class="node">
<title>...</title>
<ellipse fill="#b2dfee" stroke="#b2dfee" cx="253.9337" cy="-104" rx="27" ry="18"/>
<text text-anchor="middle" x="253.9337" y="-99.8" font-family="Times,serif" font-size="14.00" fill="#000000">...</text>
</g>
<!-- Hewlett&#45;Packard (HP)&#45;&gt;... -->
<g id="edge3" class="edge">
<title>Hewlett&#45;Packard (HP)&#45;&gt;...</title>
<path fill="none" stroke="#000000" d="M125.9629,-160.6174C154.8607,-147.8323 194.583,-130.2582 222.0726,-118.0961"/>
<polygon fill="#000000" stroke="#000000" points="223.5193,-121.2834 231.2481,-114.0367 220.6871,-114.8819 223.5193,-121.2834"/>
</g>
<!-- Digital Equipment Corp (DEC) -->
<g id="node3" class="node">
<title>Digital Equipment Corp (DEC)</title>
<ellipse fill="#b2dfee" stroke="#b2dfee" cx="316.9337" cy="-177" rx="121.2427" ry="18"/>
<text text-anchor="middle" x="316.9337" y="-172.8" font-family="Times,serif" font-size="14.00" fill="#000000">Digital Equipment Corp (DEC)</text>
</g>
<!-- Digital Equipment Corp (DEC)&#45;&gt;... -->
<g id="edge2" class="edge">
<title>Digital Equipment Corp (DEC)&#45;&gt;...</title>
<path fill="none" stroke="#000000" d="M301.3607,-158.9551C293.1952,-149.4935 283.0921,-137.7867 274.3117,-127.6126"/>
<polygon fill="#000000" stroke="#000000" points="276.7991,-125.1378 267.6159,-119.854 271.4997,-129.7113 276.7991,-125.1378"/>
</g>
<!-- Apple -->
<g id="node5" class="node">
<title>Apple</title>
<ellipse fill="#b2dfee" stroke="#b2dfee" cx="434.9337" cy="-250" rx="31.9393" ry="18"/>
<text text-anchor="middle" x="434.9337" y="-245.8" font-family="Times,serif" font-size="14.00" fill="#000000">Apple</text>
</g>
<!-- Bar -->
<g id="node6" class="node">
<title>Bar</title>
<ellipse fill="#b2dfee" stroke="#b2dfee" cx="482.9337" cy="-177" rx="27" ry="18"/>
<text text-anchor="middle" x="482.9337" y="-172.8" font-family="Times,serif" font-size="14.00" fill="#000000">Bar</text>
</g>
<!-- Apple&#45;&gt;Bar -->
<g id="edge4" class="edge">
<title>Apple&#45;&gt;Bar</title>
<path fill="none" stroke="#000000" d="M446.0665,-233.0688C452.107,-223.8823 459.6914,-212.3477 466.4081,-202.1326"/>
<polygon fill="#000000" stroke="#000000" points="469.4571,-203.8662 472.0268,-193.5877 463.6082,-200.0203 469.4571,-203.8662"/>
</g>
<!-- Microsoft -->
<g id="node7" class="node">
<title>Microsoft</title>
<ellipse fill="#b2dfee" stroke="#b2dfee" cx="529.9337" cy="-250" rx="44.9682" ry="18"/>
<text text-anchor="middle" x="529.9337" y="-245.8" font-family="Times,serif" font-size="14.00" fill="#000000">Microsoft</text>
</g>
<!-- Microsoft&#45;&gt;Bar -->
<g id="edge5" class="edge">
<title>Microsoft&#45;&gt;Bar</title>
<path fill="none" stroke="#000000" d="M518.5563,-232.3287C512.8155,-223.4121 505.7455,-212.4311 499.4214,-202.6085"/>
<polygon fill="#000000" stroke="#000000" points="502.239,-200.5192 493.8827,-194.0059 496.3533,-204.3086 502.239,-200.5192"/>
</g>
<!-- Sun Microsystems -->
<g id="node8" class="node">
<title>Sun Microsystems</title>
<ellipse fill="#b2dfee" stroke="#b2dfee" cx="668.9337" cy="-250" rx="75.898" ry="18"/>
<text text-anchor="middle" x="668.9337" y="-245.8" font-family="Times,serif" font-size="14.00" fill="#000000">Sun Microsystems</text>
</g>
<!-- Oracle -->
<g id="node9" class="node">
<title>Oracle</title>
<ellipse fill="#b2dfee" stroke="#b2dfee" cx="668.9337" cy="-177" rx="33.8422" ry="18"/>
<text text-anchor="middle" x="668.9337" y="-172.8" font-family="Times,serif" font-size="14.00" fill="#000000">Oracle</text>
</g>
<!-- Sun Microsystems&#45;&gt;Oracle -->
<g id="edge6" class="edge">
<title>Sun Microsystems&#45;&gt;Oracle</title>
<path fill="none" stroke="#000000" d="M668.9337,-231.9551C668.9337,-223.8828 668.9337,-214.1764 668.9337,-205.1817"/>
<polygon fill="#000000" stroke="#000000" points="672.4338,-205.0903 668.9337,-195.0904 665.4338,-205.0904 672.4338,-205.0903"/>
</g>
<!-- Palm -->
<g id="node10" class="node">
<title>Palm</title>
<ellipse fill="#b2dfee" stroke="#b2dfee" cx="790.9337" cy="-250" rx="28.0736" ry="18"/>
<text text-anchor="middle" x="790.9337" y="-245.8" font-family="Times,serif" font-size="14.00" fill="#000000">Palm</text>
</g>
<!-- 3com -->
<g id="node11" class="node">
<title>3com</title>
<ellipse fill="#b2dfee" stroke="#b2dfee" cx="790.9337" cy="-177" rx="29.5104" ry="18"/>
<text text-anchor="middle" x="790.9337" y="-172.8" font-family="Times,serif" font-size="14.00" fill="#000000">3com</text>
</g>
<!-- Palm&#45;&gt;3com -->
<g id="edge7" class="edge">
<title>Palm&#45;&gt;3com</title>
<path fill="none" stroke="#000000" d="M790.9337,-231.9551C790.9337,-223.8828 790.9337,-214.1764 790.9337,-205.1817"/>
<polygon fill="#000000" stroke="#000000" points="794.4338,-205.0903 790.9337,-195.0904 787.4338,-205.0904 794.4338,-205.0903"/>
</g>
<!-- Commodore -->
<g id="node12" class="node">
<title>Commodore</title>
<ellipse fill="#b2dfee" stroke="#b2dfee" cx="891.9337" cy="-250" rx="54.1403" ry="18"/>
<text text-anchor="middle" x="891.9337" y="-245.8" font-family="Times,serif" font-size="14.00" fill="#000000">Commodore</text>
</g>
<!-- Various -->
<g id="node13" class="node">
<title>Various</title>
<ellipse fill="#b2dfee" stroke="#b2dfee" cx="891.9337" cy="-177" rx="37.2507" ry="18"/>
<text text-anchor="middle" x="891.9337" y="-172.8" font-family="Times,serif" font-size="14.00" fill="#000000">Various</text>
</g>
<!-- Commodore&#45;&gt;Various -->
<g id="edge8" class="edge">
<title>Commodore&#45;&gt;Various</title>
<path fill="none" stroke="#000000" d="M891.9337,-231.9551C891.9337,-223.8828 891.9337,-214.1764 891.9337,-205.1817"/>
<polygon fill="#000000" stroke="#000000" points="895.4338,-205.0903 891.9337,-195.0904 888.4338,-205.0904 895.4338,-205.0903"/>
</g>
<!-- Atari Inc -->
<g id="node14" class="node">
<title>Atari Inc</title>
<ellipse fill="#b2dfee" stroke="#b2dfee" cx="1005.9337" cy="-250" rx="41.5613" ry="18"/>
<text text-anchor="middle" x="1005.9337" y="-245.8" font-family="Times,serif" font-size="14.00" fill="#000000">Atari Inc</text>
</g>
<!-- Atari Corp -->
<g id="node15" class="node">
<title>Atari Corp</title>
<ellipse fill="#b2dfee" stroke="#b2dfee" cx="1005.9337" cy="-177" rx="48.351" ry="18"/>
<text text-anchor="middle" x="1005.9337" y="-172.8" font-family="Times,serif" font-size="14.00" fill="#000000">Atari Corp</text>
</g>
<!-- Atari Inc&#45;&gt;Atari Corp -->
<g id="edge9" class="edge">
<title>Atari Inc&#45;&gt;Atari Corp</title>
<path fill="none" stroke="#000000" d="M1005.9337,-231.9551C1005.9337,-223.8828 1005.9337,-214.1764 1005.9337,-205.1817"/>
<polygon fill="#000000" stroke="#000000" points="1009.4338,-205.0903 1005.9337,-195.0904 1002.4338,-205.0904 1009.4338,-205.0903"/>
</g>
<!-- JTS Corp -->
<g id="node16" class="node">
<title>JTS Corp</title>
<ellipse fill="#b2dfee" stroke="#b2dfee" cx="964.9337" cy="-104" rx="43.534" ry="18"/>
<text text-anchor="middle" x="964.9337" y="-99.8" font-family="Times,serif" font-size="14.00" fill="#000000">JTS Corp</text>
</g>
<!-- Atari Corp&#45;&gt;JTS Corp -->
<g id="edge10" class="edge">
<title>Atari Corp&#45;&gt;JTS Corp</title>
<path fill="none" stroke="#000000" d="M996.0088,-159.3287C991.1596,-150.695 985.2235,-140.1256 979.8435,-130.5466"/>
<polygon fill="#000000" stroke="#000000" points="982.858,-128.7666 974.9094,-121.7615 976.7547,-132.1944 982.858,-128.7666"/>
</g>
<!-- Hasbro Interactive -->
<g id="node17" class="node">
<title>Hasbro Interactive</title>
<ellipse fill="#b2dfee" stroke="#b2dfee" cx="1101.9337" cy="-104" rx="75.8287" ry="18"/>
<text text-anchor="middle" x="1101.9337" y="-99.8" font-family="Times,serif" font-size="14.00" fill="#000000">Hasbro Interactive</text>
</g>
<!-- Atari Corp&#45;&gt;Hasbro Interactive -->
<g id="edge11" class="edge">
<title>Atari Corp&#45;&gt;Hasbro Interactive</title>
<path fill="none" stroke="#000000" d="M1027.2392,-160.7989C1040.0763,-151.0374 1056.6483,-138.4358 1070.9201,-127.5832"/>
<polygon fill="#000000" stroke="#000000" points="1073.1703,-130.2692 1079.0118,-121.4302 1068.9332,-124.6972 1073.1703,-130.2692"/>
</g>
<!-- Infogrames -->
<g id="node18" class="node">
<title>Infogrames</title>
<ellipse fill="#b2dfee" stroke="#b2dfee" cx="1101.9337" cy="-18" rx="50.2551" ry="18"/>
<text text-anchor="middle" x="1101.9337" y="-13.8" font-family="Times,serif" font-size="14.00" fill="#000000">Infogrames</text>
</g>
<!-- Hasbro Interactive&#45;&gt;Infogrames -->
<g id="edge12" class="edge">
<title>Hasbro Interactive&#45;&gt;Infogrames</title>
<path fill="none" stroke="#000000" d="M1101.9337,-85.7616C1101.9337,-74.3597 1101.9337,-59.4342 1101.9337,-46.494"/>
<polygon fill="#000000" stroke="#000000" points="1105.4338,-46.2121 1101.9337,-36.2121 1098.4338,-46.2121 1105.4338,-46.2121"/>
<text text-anchor="middle" x="1115.9337" y="-56.8" font-family="Times,serif" font-size="14.00" fill="#000000">2000</text>
</g>
</g>
</svg>
