<?xml version="1.0" encoding="UTF-8" standalone="no"?>
<!DOCTYPE svg PUBLIC "-//W3C//DTD SVG 1.1//EN"
 "http://www.w3.org/Graphics/SVG/1.1/DTD/svg11.dtd">
<!-- Generated by graphviz version 2.40.1 (20161225.0304)
 -->
<!-- Title: techcompanies Pages: 1 -->
<svg width="432pt" height="69pt"
 viewBox="0.00 0.00 432.00 69.25" xmlns="http://www.w3.org/2000/svg" xmlns:xlink="http://www.w3.org/1999/xlink">
<g id="graph0" class="graph" transform="scale(.597 .597) rotate(0) translate(4 112)">
<title>techcompanies</title>
<polygon fill="#ffffff" stroke="transparent" points="-4,4 -4,-112 719.6566,-112 719.6566,4 -4,4"/>
<!-- Apollo -->
<g id="node1" class="node">
<title>Apollo</title>
<ellipse fill="#b2dfee" stroke="#b2dfee" cx="34.6725" cy="-90" rx="34.8458" ry="18"/>
<text text-anchor="middle" x="34.6725" y="-85.8" font-family="Times,serif" font-size="14.00" fill="#000000">Apollo</text>
</g>
<!-- Foo -->
<g id="node2" class="node">
<title>Foo</title>
<ellipse fill="#b2dfee" stroke="#b2dfee" cx="208.6725" cy="-18" rx="27" ry="18"/>
<text text-anchor="middle" x="208.6725" y="-13.8" font-family="Times,serif" font-size="14.00" fill="#000000">Foo</text>
</g>
<!-- Apollo&#45;&gt;Foo -->
<g id="edge1" class="edge">
<title>Apollo&#45;&gt;Foo</title>
<path fill="none" stroke="#000000" d="M61.86,-78.75C92.6968,-65.9899 142.9648,-45.1894 175.9316,-31.5479"/>
<polygon fill="#000000" stroke="#000000" points="177.6647,-34.6187 185.5666,-27.561 174.9882,-28.1506 177.6647,-34.6187"/>
</g>
<!-- Digital Equipment Corp (DEC) -->
<g id="node3" class="node">
<title>Digital Equipment Corp (DEC)</title>
<ellipse fill="#b2dfee" stroke="#b2dfee" cx="208.6725" cy="-90" rx="121.2427" ry="18"/>
<text text-anchor="middle" x="208.6725" y="-85.8" font-family="Times,serif" font-size="14.00" fill="#000000">Digital Equipment Corp (DEC)</text>
</g>
<!-- Digital Equipment Corp (DEC)&#45;&gt;Foo -->
<g id="edge2" class="edge">
<title>Digital Equipment Corp (DEC)&#45;&gt;Foo</title>
<path fill="none" stroke="#000000" d="M208.6725,-71.8314C208.6725,-64.131 208.6725,-54.9743 208.6725,-46.4166"/>
<polygon fill="#000000" stroke="#000000" points="212.1726,-46.4132 208.6725,-36.4133 205.1726,-46.4133 212.1726,-46.4132"/>
</g>
<!-- Hewlett&#45;Packard (HP) -->
<g id="node4" class="node">
<title>Hewlett&#45;Packard (HP)</title>
<ellipse fill="#b2dfee" stroke="#b2dfee" cx="436.6725" cy="-90" rx="88.8675" ry="18"/>
<text text-anchor="middle" x="436.6725" y="-85.8" font-family="Times,serif" font-size="14.00" fill="#000000">Hewlett&#45;Packard (HP)</text>
</g>
<!-- Hewlett&#45;Packard (HP)&#45;&gt;Foo -->
<g id="edge3" class="edge">
<title>Hewlett&#45;Packard (HP)&#45;&gt;Foo</title>
<path fill="none" stroke="#000000" d="M388.5981,-74.8186C344.9428,-61.0327 281.6357,-41.041 242.9204,-28.8151"/>
<polygon fill="#000000" stroke="#000000" points="243.7519,-25.4074 233.1621,-25.7336 241.6439,-32.0825 243.7519,-25.4074"/>
</g>
<!-- Apple -->
<g id="node5" class="node">
<title>Apple</title>
<ellipse fill="#b2dfee" stroke="#b2dfee" cx="575.6725" cy="-90" rx="31.9393" ry="18"/>
<text text-anchor="middle" x="575.6725" y="-85.8" font-family="Times,serif" font-size="14.00" fill="#000000">Apple</text>
</g>
<!-- Bar -->
<g id="node6" class="node">
<title>Bar</title>
<ellipse fill="#b2dfee" stroke="#b2dfee" cx="622.6725" cy="-18" rx="27" ry="18"/>
<text text-anchor="middle" x="622.6725" y="-13.8" font-family="Times,serif" font-size="14.00" fill="#000000">Bar</text>
</g>
<!-- Apple&#45;&gt;Bar -->
<g id="edge4" class="edge">
<title>Apple&#45;&gt;Bar</title>
<path fill="none" stroke="#000000" d="M586.8108,-72.937C592.547,-64.1496 599.6569,-53.2579 606.0295,-43.4956"/>
<polygon fill="#000000" stroke="#000000" points="609.0787,-45.2275 611.6141,-34.9405 603.217,-41.4011 609.0787,-45.2275"/>
</g>
<!-- Microsoft -->
<g id="node7" class="node">
<title>Microsoft</title>
<ellipse fill="#b2dfee" stroke="#b2dfee" cx="670.6725" cy="-90" rx="44.9682" ry="18"/>
<text text-anchor="middle" x="670.6725" y="-85.8" font-family="Times,serif" font-size="14.00" fill="#000000">Microsoft</text>
</g>
<!-- Microsoft&#45;&gt;Bar -->
<g id="edge5" class="edge">
<title>Microsoft&#45;&gt;Bar</title>
<path fill="none" stroke="#000000" d="M659.053,-72.5708C653.19,-63.7763 645.9696,-52.9457 639.5109,-43.2577"/>
<polygon fill="#000000" stroke="#000000" points="642.3137,-41.152 633.8544,-34.7729 636.4893,-45.0349 642.3137,-41.152"/>
</g>
</g>
</svg>
