<?xml version="1.0" encoding="UTF-8" standalone="no"?>
<!DOCTYPE svg PUBLIC "-//W3C//DTD SVG 1.1//EN"
 "http://www.w3.org/Graphics/SVG/1.1/DTD/svg11.dtd">
<!-- Generated by graphviz version 2.40.1 (20161225.0304)
 -->
<!-- Title: techcompanies Pages: 1 -->
<svg width="432pt" height="98pt"
 viewBox="0.00 0.00 432.00 98.01" xmlns="http://www.w3.org/2000/svg" xmlns:xlink="http://www.w3.org/1999/xlink">
<g id="graph0" class="graph" transform="scale(.5213 .5213) rotate(0) translate(4 184)">
<title>techcompanies</title>
<polygon fill="#ffffff" stroke="transparent" points="-4,4 -4,-184 824.6879,-184 824.6879,4 -4,4"/>
<!-- Apollo -->
<g id="node1" class="node">
<title>Apollo</title>
<ellipse fill="#b2dfee" stroke="#b2dfee" cx="88.9337" cy="-162" rx="34.8458" ry="18"/>
<text text-anchor="middle" x="88.9337" y="-157.8" font-family="Times,serif" font-size="14.00" fill="#000000">Apollo</text>
</g>
<!-- Hewlett&#45;Packard (HP) -->
<g id="node2" class="node">
<title>Hewlett&#45;Packard (HP)</title>
<ellipse fill="#b2dfee" stroke="#b2dfee" cx="88.9337" cy="-90" rx="88.8675" ry="18"/>
<text text-anchor="middle" x="88.9337" y="-85.8" font-family="Times,serif" font-size="14.00" fill="#000000">Hewlett&#45;Packard (HP)</text>
</g>
<!-- Apollo&#45;&gt;Hewlett&#45;Packard (HP) -->
<g id="edge1" class="edge">
<title>Apollo&#45;&gt;Hewlett&#45;Packard (HP)</title>
<path fill="none" stroke="#000000" d="M88.9337,-143.8314C88.9337,-136.131 88.9337,-126.9743 88.9337,-118.4166"/>
<polygon fill="#000000" stroke="#000000" points="92.4338,-118.4132 88.9337,-108.4133 85.4338,-118.4133 92.4338,-118.4132"/>
</g>
<!-- Foo -->
<g id="node4" class="node">
<title>Foo</title>
<ellipse fill="#b2dfee" stroke="#b2dfee" cx="202.9337" cy="-18" rx="27" ry="18"/>
<text text-anchor="middle" x="202.9337" y="-13.8" font-family="Times,serif" font-size="14.00" fill="#000000">Foo</text>
</g>
<!-- Hewlett&#45;Packard (HP)&#45;&gt;Foo -->
<g id="edge3" class="edge">
<title>Hewlett&#45;Packard (HP)&#45;&gt;Foo</title>
<path fill="none" stroke="#000000" d="M116.2396,-72.7542C133.7406,-61.7009 156.4233,-47.375 174.1971,-36.1494"/>
<polygon fill="#000000" stroke="#000000" points="176.4049,-38.8947 182.9909,-30.5955 172.667,-32.9762 176.4049,-38.8947"/>
</g>
<!-- Digital Equipment Corp (DEC) -->
<g id="node3" class="node">
<title>Digital Equipment Corp (DEC)</title>
<ellipse fill="#b2dfee" stroke="#b2dfee" cx="316.9337" cy="-90" rx="121.2427" ry="18"/>
<text text-anchor="middle" x="316.9337" y="-85.8" font-family="Times,serif" font-size="14.00" fill="#000000">Digital Equipment Corp (DEC)</text>
</g>
<!-- Digital Equipment Corp (DEC)&#45;&gt;Foo -->
<g id="edge2" class="edge">
<title>Digital Equipment Corp (DEC)&#45;&gt;Foo</title>
<path fill="none" stroke="#000000" d="M289.0462,-72.3868C271.5328,-61.3258 249.0073,-47.0991 231.3874,-35.9708"/>
<polygon fill="#000000" stroke="#000000" points="232.9969,-32.8477 222.673,-30.4669 229.259,-38.7661 232.9969,-32.8477"/>
</g>
<!-- Apple -->
<g id="node5" class="node">
<title>Apple</title>
<ellipse fill="#b2dfee" stroke="#b2dfee" cx="434.9337" cy="-162" rx="31.9393" ry="18"/>
<text text-anchor="middle" x="434.9337" y="-157.8" font-family="Times,serif" font-size="14.00" fill="#000000">Apple</text>
</g>
<!-- Bar -->
<g id="node6" class="node">
<title>Bar</title>
<ellipse fill="#b2dfee" stroke="#b2dfee" cx="482.9337" cy="-90" rx="27" ry="18"/>
<text text-anchor="middle" x="482.9337" y="-85.8" font-family="Times,serif" font-size="14.00" fill="#000000">Bar</text>
</g>
<!-- Apple&#45;&gt;Bar -->
<g id="edge4" class="edge">
<title>Apple&#45;&gt;Bar</title>
<path fill="none" stroke="#000000" d="M446.309,-144.937C452.1673,-136.1496 459.4285,-125.2579 465.9367,-115.4956"/>
<polygon fill="#000000" stroke="#000000" points="469.0052,-117.2025 471.64,-106.9405 463.1808,-113.3196 469.0052,-117.2025"/>
</g>
<!-- Microsoft -->
<g id="node7" class="node">
<title>Microsoft</title>
<ellipse fill="#b2dfee" stroke="#b2dfee" cx="529.9337" cy="-162" rx="44.9682" ry="18"/>
<text text-anchor="middle" x="529.9337" y="-157.8" font-family="Times,serif" font-size="14.00" fill="#000000">Microsoft</text>
</g>
<!-- Microsoft&#45;&gt;Bar -->
<g id="edge5" class="edge">
<title>Microsoft&#45;&gt;Bar</title>
<path fill="none" stroke="#000000" d="M518.5563,-144.5708C512.8155,-135.7763 505.7455,-124.9457 499.4214,-115.2577"/>
<polygon fill="#000000" stroke="#000000" points="502.2798,-113.2335 493.8827,-106.7729 496.4181,-117.0599 502.2798,-113.2335"/>
</g>
<!-- Sun Microsystems -->
<g id="node8" class="node">
<title>Sun Microsystems</title>
<ellipse fill="#b2dfee" stroke="#b2dfee" cx="668.9337" cy="-162" rx="75.898" ry="18"/>
<text text-anchor="middle" x="668.9337" y="-157.8" font-family="Times,serif" font-size="14.00" fill="#000000">Sun Microsystems</text>
</g>
<!-- Oracle -->
<g id="node9" class="node">
<title>Oracle</title>
<ellipse fill="#b2dfee" stroke="#b2dfee" cx="668.9337" cy="-90" rx="33.8422" ry="18"/>
<text text-anchor="middle" x="668.9337" y="-85.8" font-family="Times,serif" font-size="14.00" fill="#000000">Oracle</text>
</g>
<!-- Sun Microsystems&#45;&gt;Oracle -->
<g id="edge6" class="edge">
<title>Sun Microsystems&#45;&gt;Oracle</title>
<path fill="none" stroke="#000000" d="M668.9337,-143.8314C668.9337,-136.131 668.9337,-126.9743 668.9337,-118.4166"/>
<polygon fill="#000000" stroke="#000000" points="672.4338,-118.4132 668.9337,-108.4133 665.4338,-118.4133 672.4338,-118.4132"/>
</g>
<!-- Palm -->
<g id="node10" class="node">
<title>Palm</title>
<ellipse fill="#b2dfee" stroke="#b2dfee" cx="790.9337" cy="-162" rx="28.0736" ry="18"/>
<text text-anchor="middle" x="790.9337" y="-157.8" font-family="Times,serif" font-size="14.00" fill="#000000">Palm</text>
</g>
<!-- 3com -->
<g id="node11" class="node">
<title>3com</title>
<ellipse fill="#b2dfee" stroke="#b2dfee" cx="790.9337" cy="-90" rx="29.5104" ry="18"/>
<text text-anchor="middle" x="790.9337" y="-85.8" font-family="Times,serif" font-size="14.00" fill="#000000">3com</text>
</g>
<!-- Palm&#45;&gt;3com -->
<g id="edge7" class="edge">
<title>Palm&#45;&gt;3com</title>
<path fill="none" stroke="#000000" d="M790.9337,-143.8314C790.9337,-136.131 790.9337,-126.9743 790.9337,-118.4166"/>
<polygon fill="#000000" stroke="#000000" points="794.4338,-118.4132 790.9337,-108.4133 787.4338,-118.4133 794.4338,-118.4132"/>
</g>
</g>
</svg>
