<?xml version="1.0" encoding="UTF-8" standalone="no"?>
<!DOCTYPE svg PUBLIC "-//W3C//DTD SVG 1.1//EN"
 "http://www.w3.org/Graphics/SVG/1.1/DTD/svg11.dtd">
<!-- Generated by graphviz version 2.40.1 (20161225.0304)
 -->
<!-- Title: techcompanies Pages: 1 -->
<svg width="432pt" height="97pt"
 viewBox="0.00 0.00 432.00 97.03" xmlns="http://www.w3.org/2000/svg" xmlns:xlink="http://www.w3.org/1999/xlink">
<g id="graph0" class="graph" transform="scale(.3732 .3732) rotate(0) translate(4 256)">
<title>techcompanies</title>
<polygon fill="#ffffff" stroke="transparent" points="-4,4 -4,-256 1153.5979,-256 1153.5979,4 -4,4"/>
<!-- Apollo -->
<g id="node1" class="node">
<title>Apollo</title>
<ellipse fill="#b2dfee" stroke="#b2dfee" cx="88.9337" cy="-234" rx="34.8458" ry="18"/>
<text text-anchor="middle" x="88.9337" y="-229.8" font-family="Times,serif" font-size="14.00" fill="#000000">Apollo</text>
</g>
<!-- Hewlett&#45;Packard (HP) -->
<g id="node2" class="node">
<title>Hewlett&#45;Packard (HP)</title>
<ellipse fill="#b2dfee" stroke="#b2dfee" cx="88.9337" cy="-162" rx="88.8675" ry="18"/>
<text text-anchor="middle" x="88.9337" y="-157.8" font-family="Times,serif" font-size="14.00" fill="#000000">Hewlett&#45;Packard (HP)</text>
</g>
<!-- Apollo&#45;&gt;Hewlett&#45;Packard (HP) -->
<g id="edge1" class="edge">
<title>Apollo&#45;&gt;Hewlett&#45;Packard (HP)</title>
<path fill="none" stroke="#000000" d="M88.9337,-215.8314C88.9337,-208.131 88.9337,-198.9743 88.9337,-190.4166"/>
<polygon fill="#000000" stroke="#000000" points="92.4338,-190.4132 88.9337,-180.4133 85.4338,-190.4133 92.4338,-190.4132"/>
</g>
<!-- ... -->
<g id="node4" class="node">
<title>...</title>
<ellipse fill="#b2dfee" stroke="#b2dfee" cx="202.9337" cy="-90" rx="27" ry="18"/>
<text text-anchor="middle" x="202.9337" y="-85.8" font-family="Times,serif" font-size="14.00" fill="#000000">...</text>
</g>
<!-- Hewlett&#45;Packard (HP)&#45;&gt;... -->
<g id="edge3" class="edge">
<title>Hewlett&#45;Packard (HP)&#45;&gt;...</title>
<path fill="none" stroke="#000000" d="M116.2396,-144.7542C133.7406,-133.7009 156.4233,-119.375 174.1971,-108.1494"/>
<polygon fill="#000000" stroke="#000000" points="176.4049,-110.8947 182.9909,-102.5955 172.667,-104.9762 176.4049,-110.8947"/>
</g>
<!-- Digital Equipment Corp (DEC) -->
<g id="node3" class="node">
<title>Digital Equipment Corp (DEC)</title>
<ellipse fill="#b2dfee" stroke="#b2dfee" cx="316.9337" cy="-162" rx="121.2427" ry="18"/>
<text text-anchor="middle" x="316.9337" y="-157.8" font-family="Times,serif" font-size="14.00" fill="#000000">Digital Equipment Corp (DEC)</text>
</g>
<!-- Digital Equipment Corp (DEC)&#45;&gt;... -->
<g id="edge2" class="edge">
<title>Digital Equipment Corp (DEC)&#45;&gt;...</title>
<path fill="none" stroke="#000000" d="M289.0462,-144.3868C271.5328,-133.3258 249.0073,-119.0991 231.3874,-107.9708"/>
<polygon fill="#000000" stroke="#000000" points="232.9969,-104.8477 222.673,-102.4669 229.259,-110.7661 232.9969,-104.8477"/>
</g>
<!-- Apple -->
<g id="node5" class="node">
<title>Apple</title>
<ellipse fill="#b2dfee" stroke="#b2dfee" cx="434.9337" cy="-234" rx="31.9393" ry="18"/>
<text text-anchor="middle" x="434.9337" y="-229.8" font-family="Times,serif" font-size="14.00" fill="#000000">Apple</text>
</g>
<!-- Bar -->
<g id="node6" class="node">
<title>Bar</title>
<ellipse fill="#b2dfee" stroke="#b2dfee" cx="482.9337" cy="-162" rx="27" ry="18"/>
<text text-anchor="middle" x="482.9337" y="-157.8" font-family="Times,serif" font-size="14.00" fill="#000000">Bar</text>
</g>
<!-- Apple&#45;&gt;Bar -->
<g id="edge4" class="edge">
<title>Apple&#45;&gt;Bar</title>
<path fill="none" stroke="#000000" d="M446.309,-216.937C452.1673,-208.1496 459.4285,-197.2579 465.9367,-187.4956"/>
<polygon fill="#000000" stroke="#000000" points="469.0052,-189.2025 471.64,-178.9405 463.1808,-185.3196 469.0052,-189.2025"/>
</g>
<!-- Microsoft -->
<g id="node7" class="node">
<title>Microsoft</title>
<ellipse fill="#b2dfee" stroke="#b2dfee" cx="529.9337" cy="-234" rx="44.9682" ry="18"/>
<text text-anchor="middle" x="529.9337" y="-229.8" font-family="Times,serif" font-size="14.00" fill="#000000">Microsoft</text>
</g>
<!-- Microsoft&#45;&gt;Bar -->
<g id="edge5" class="edge">
<title>Microsoft&#45;&gt;Bar</title>
<path fill="none" stroke="#000000" d="M518.5563,-216.5708C512.8155,-207.7763 505.7455,-196.9457 499.4214,-187.2577"/>
<polygon fill="#000000" stroke="#000000" points="502.2798,-185.2335 493.8827,-178.7729 496.4181,-189.0599 502.2798,-185.2335"/>
</g>
<!-- Sun Microsystems -->
<g id="node8" class="node">
<title>Sun Microsystems</title>
<ellipse fill="#b2dfee" stroke="#b2dfee" cx="668.9337" cy="-234" rx="75.898" ry="18"/>
<text text-anchor="middle" x="668.9337" y="-229.8" font-family="Times,serif" font-size="14.00" fill="#000000">Sun Microsystems</text>
</g>
<!-- Oracle -->
<g id="node9" class="node">
<title>Oracle</title>
<ellipse fill="#b2dfee" stroke="#b2dfee" cx="668.9337" cy="-162" rx="33.8422" ry="18"/>
<text text-anchor="middle" x="668.9337" y="-157.8" font-family="Times,serif" font-size="14.00" fill="#000000">Oracle</text>
</g>
<!-- Sun Microsystems&#45;&gt;Oracle -->
<g id="edge6" class="edge">
<title>Sun Microsystems&#45;&gt;Oracle</title>
<path fill="none" stroke="#000000" d="M668.9337,-215.8314C668.9337,-208.131 668.9337,-198.9743 668.9337,-190.4166"/>
<polygon fill="#000000" stroke="#000000" points="672.4338,-190.4132 668.9337,-180.4133 665.4338,-190.4133 672.4338,-190.4132"/>
</g>
<!-- Palm -->
<g id="node10" class="node">
<title>Palm</title>
<ellipse fill="#b2dfee" stroke="#b2dfee" cx="790.9337" cy="-234" rx="28.0736" ry="18"/>
<text text-anchor="middle" x="790.9337" y="-229.8" font-family="Times,serif" font-size="14.00" fill="#000000">Palm</text>
</g>
<!-- 3com -->
<g id="node11" class="node">
<title>3com</title>
<ellipse fill="#b2dfee" stroke="#b2dfee" cx="790.9337" cy="-162" rx="29.5104" ry="18"/>
<text text-anchor="middle" x="790.9337" y="-157.8" font-family="Times,serif" font-size="14.00" fill="#000000">3com</text>
</g>
<!-- Palm&#45;&gt;3com -->
<g id="edge7" class="edge">
<title>Palm&#45;&gt;3com</title>
<path fill="none" stroke="#000000" d="M790.9337,-215.8314C790.9337,-208.131 790.9337,-198.9743 790.9337,-190.4166"/>
<polygon fill="#000000" stroke="#000000" points="794.4338,-190.4132 790.9337,-180.4133 787.4338,-190.4133 794.4338,-190.4132"/>
</g>
<!-- Commodore -->
<g id="node12" class="node">
<title>Commodore</title>
<ellipse fill="#b2dfee" stroke="#b2dfee" cx="891.9337" cy="-234" rx="54.1403" ry="18"/>
<text text-anchor="middle" x="891.9337" y="-229.8" font-family="Times,serif" font-size="14.00" fill="#000000">Commodore</text>
</g>
<!-- Various -->
<g id="node13" class="node">
<title>Various</title>
<ellipse fill="#b2dfee" stroke="#b2dfee" cx="891.9337" cy="-162" rx="37.2507" ry="18"/>
<text text-anchor="middle" x="891.9337" y="-157.8" font-family="Times,serif" font-size="14.00" fill="#000000">Various</text>
</g>
<!-- Commodore&#45;&gt;Various -->
<g id="edge8" class="edge">
<title>Commodore&#45;&gt;Various</title>
<path fill="none" stroke="#000000" d="M891.9337,-215.8314C891.9337,-208.131 891.9337,-198.9743 891.9337,-190.4166"/>
<polygon fill="#000000" stroke="#000000" points="895.4338,-190.4132 891.9337,-180.4133 888.4338,-190.4133 895.4338,-190.4132"/>
</g>
<!-- Atari Inc -->
<g id="node14" class="node">
<title>Atari Inc</title>
<ellipse fill="#b2dfee" stroke="#b2dfee" cx="1005.9337" cy="-234" rx="41.5613" ry="18"/>
<text text-anchor="middle" x="1005.9337" y="-229.8" font-family="Times,serif" font-size="14.00" fill="#000000">Atari Inc</text>
</g>
<!-- Atari Corp -->
<g id="node15" class="node">
<title>Atari Corp</title>
<ellipse fill="#b2dfee" stroke="#b2dfee" cx="1005.9337" cy="-162" rx="48.351" ry="18"/>
<text text-anchor="middle" x="1005.9337" y="-157.8" font-family="Times,serif" font-size="14.00" fill="#000000">Atari Corp</text>
</g>
<!-- Atari Inc&#45;&gt;Atari Corp -->
<g id="edge9" class="edge">
<title>Atari Inc&#45;&gt;Atari Corp</title>
<path fill="none" stroke="#000000" d="M1005.9337,-215.8314C1005.9337,-208.131 1005.9337,-198.9743 1005.9337,-190.4166"/>
<polygon fill="#000000" stroke="#000000" points="1009.4338,-190.4132 1005.9337,-180.4133 1002.4338,-190.4133 1009.4338,-190.4132"/>
</g>
<!-- JTS Corp -->
<g id="node16" class="node">
<title>JTS Corp</title>
<ellipse fill="#b2dfee" stroke="#b2dfee" cx="936.9337" cy="-90" rx="43.534" ry="18"/>
<text text-anchor="middle" x="936.9337" y="-85.8" font-family="Times,serif" font-size="14.00" fill="#000000">JTS Corp</text>
</g>
<!-- Atari Corp&#45;&gt;JTS Corp -->
<g id="edge10" class="edge">
<title>Atari Corp&#45;&gt;JTS Corp</title>
<path fill="none" stroke="#000000" d="M989.5817,-144.937C980.8167,-135.791 969.8671,-124.3652 960.227,-114.3061"/>
<polygon fill="#000000" stroke="#000000" points="962.6144,-111.7387 953.1684,-106.9405 957.5605,-116.5821 962.6144,-111.7387"/>
</g>
<!-- Hasbro Interactive -->
<g id="node17" class="node">
<title>Hasbro Interactive</title>
<ellipse fill="#b2dfee" stroke="#b2dfee" cx="1073.9337" cy="-90" rx="75.8287" ry="18"/>
<text text-anchor="middle" x="1073.9337" y="-85.8" font-family="Times,serif" font-size="14.00" fill="#000000">Hasbro Interactive</text>
</g>
<!-- Atari Corp&#45;&gt;Hasbro Interactive -->
<g id="edge11" class="edge">
<title>Atari Corp&#45;&gt;Hasbro Interactive</title>
<path fill="none" stroke="#000000" d="M1022.0488,-144.937C1030.4989,-135.9898 1041.0095,-124.8609 1050.3566,-114.964"/>
<polygon fill="#000000" stroke="#000000" points="1052.9025,-117.3658 1057.2242,-107.6924 1047.8134,-112.5594 1052.9025,-117.3658"/>
</g>
<!-- Infogrames -->
<g id="node18" class="node">
<title>Infogrames</title>
<ellipse fill="#b2dfee" stroke="#b2dfee" cx="1073.9337" cy="-18" rx="50.2551" ry="18"/>
<text text-anchor="middle" x="1073.9337" y="-13.8" font-family="Times,serif" font-size="14.00" fill="#000000">Infogrames</text>
</g>
<!-- Hasbro Interactive&#45;&gt;Infogrames -->
<g id="edge12" class="edge">
<title>Hasbro Interactive&#45;&gt;Infogrames</title>
<path fill="none" stroke="#000000" d="M1073.9337,-71.8314C1073.9337,-64.131 1073.9337,-54.9743 1073.9337,-46.4166"/>
<polygon fill="#000000" stroke="#000000" points="1077.4338,-46.4132 1073.9337,-36.4133 1070.4338,-46.4133 1077.4338,-46.4132"/>
</g>
</g>
</svg>
