<?xml version="1.0" encoding="UTF-8" standalone="no"?>
<!DOCTYPE svg PUBLIC "-//W3C//DTD SVG 1.1//EN"
 "http://www.w3.org/Graphics/SVG/1.1/DTD/svg11.dtd">
<!-- Generated by graphviz version 2.40.1 (20161225.0304)
 -->
<!-- Title: techcompanies Pages: 1 -->
<svg width="432pt" height="52pt"
 viewBox="0.00 0.00 432.00 51.69" xmlns="http://www.w3.org/2000/svg" xmlns:xlink="http://www.w3.org/1999/xlink">
<g id="graph0" class="graph" transform="scale(.4456 .4456) rotate(0) translate(4 112)">
<title>techcompanies</title>
<polygon fill="#ffffff" stroke="transparent" points="-4,4 -4,-112 965.4267,-112 965.4267,4 -4,4"/>
<!-- Apollo -->
<g id="node1" class="node">
<title>Apollo</title>
<ellipse fill="#b2dfee" stroke="#b2dfee" cx="34.6725" cy="-90" rx="34.8458" ry="18"/>
<text text-anchor="middle" x="34.6725" y="-85.8" font-family="Times,serif" font-size="14.00" fill="#000000">Apollo</text>
</g>
<!-- HP -->
<g id="node2" class="node">
<title>HP</title>
<ellipse fill="#b2dfee" stroke="#b2dfee" cx="34.6725" cy="-18" rx="27" ry="18"/>
<text text-anchor="middle" x="34.6725" y="-13.8" font-family="Times,serif" font-size="14.00" fill="#000000">HP</text>
</g>
<!-- Apollo&#45;&gt;HP -->
<g id="edge1" class="edge">
<title>Apollo&#45;&gt;HP</title>
<path fill="none" stroke="#000000" d="M34.6725,-71.8314C34.6725,-64.131 34.6725,-54.9743 34.6725,-46.4166"/>
<polygon fill="#000000" stroke="#000000" points="38.1726,-46.4132 34.6725,-36.4133 31.1726,-46.4133 38.1726,-46.4132"/>
</g>
<!-- Digital Equipment Corp (DEC) -->
<g id="node3" class="node">
<title>Digital Equipment Corp (DEC)</title>
<ellipse fill="#b2dfee" stroke="#b2dfee" cx="208.6725" cy="-90" rx="121.2427" ry="18"/>
<text text-anchor="middle" x="208.6725" y="-85.8" font-family="Times,serif" font-size="14.00" fill="#000000">Digital Equipment Corp (DEC)</text>
</g>
<!-- Foo -->
<g id="node4" class="node">
<title>Foo</title>
<ellipse fill="#b2dfee" stroke="#b2dfee" cx="322.6725" cy="-18" rx="27" ry="18"/>
<text text-anchor="middle" x="322.6725" y="-13.8" font-family="Times,serif" font-size="14.00" fill="#000000">Foo</text>
</g>
<!-- Digital Equipment Corp (DEC)&#45;&gt;Foo -->
<g id="edge2" class="edge">
<title>Digital Equipment Corp (DEC)&#45;&gt;Foo</title>
<path fill="none" stroke="#000000" d="M236.56,-72.3868C254.0734,-61.3258 276.5989,-47.0991 294.2188,-35.9708"/>
<polygon fill="#000000" stroke="#000000" points="296.3472,-38.7661 302.9332,-30.4669 292.6093,-32.8477 296.3472,-38.7661"/>
</g>
<!-- Hewlett&#45;Packard (HP) -->
<g id="node5" class="node">
<title>Hewlett&#45;Packard (HP)</title>
<ellipse fill="#b2dfee" stroke="#b2dfee" cx="436.6725" cy="-90" rx="88.8675" ry="18"/>
<text text-anchor="middle" x="436.6725" y="-85.8" font-family="Times,serif" font-size="14.00" fill="#000000">Hewlett&#45;Packard (HP)</text>
</g>
<!-- Hewlett&#45;Packard (HP)&#45;&gt;Foo -->
<g id="edge3" class="edge">
<title>Hewlett&#45;Packard (HP)&#45;&gt;Foo</title>
<path fill="none" stroke="#000000" d="M409.3666,-72.7542C391.8656,-61.7009 369.1829,-47.375 351.409,-36.1494"/>
<polygon fill="#000000" stroke="#000000" points="352.9392,-32.9762 342.6153,-30.5955 349.2013,-38.8947 352.9392,-32.9762"/>
</g>
<!-- Apple -->
<g id="node6" class="node">
<title>Apple</title>
<ellipse fill="#b2dfee" stroke="#b2dfee" cx="575.6725" cy="-90" rx="31.9393" ry="18"/>
<text text-anchor="middle" x="575.6725" y="-85.8" font-family="Times,serif" font-size="14.00" fill="#000000">Apple</text>
</g>
<!-- Bar -->
<g id="node7" class="node">
<title>Bar</title>
<ellipse fill="#b2dfee" stroke="#b2dfee" cx="622.6725" cy="-18" rx="27" ry="18"/>
<text text-anchor="middle" x="622.6725" y="-13.8" font-family="Times,serif" font-size="14.00" fill="#000000">Bar</text>
</g>
<!-- Apple&#45;&gt;Bar -->
<g id="edge4" class="edge">
<title>Apple&#45;&gt;Bar</title>
<path fill="none" stroke="#000000" d="M586.8108,-72.937C592.547,-64.1496 599.6569,-53.2579 606.0295,-43.4956"/>
<polygon fill="#000000" stroke="#000000" points="609.0787,-45.2275 611.6141,-34.9405 603.217,-41.4011 609.0787,-45.2275"/>
</g>
<!-- Microsoft -->
<g id="node8" class="node">
<title>Microsoft</title>
<ellipse fill="#b2dfee" stroke="#b2dfee" cx="670.6725" cy="-90" rx="44.9682" ry="18"/>
<text text-anchor="middle" x="670.6725" y="-85.8" font-family="Times,serif" font-size="14.00" fill="#000000">Microsoft</text>
</g>
<!-- Microsoft&#45;&gt;Bar -->
<g id="edge5" class="edge">
<title>Microsoft&#45;&gt;Bar</title>
<path fill="none" stroke="#000000" d="M659.053,-72.5708C653.19,-63.7763 645.9696,-52.9457 639.5109,-43.2577"/>
<polygon fill="#000000" stroke="#000000" points="642.3137,-41.152 633.8544,-34.7729 636.4893,-45.0349 642.3137,-41.152"/>
</g>
<!-- Sun Microsystems -->
<g id="node9" class="node">
<title>Sun Microsystems</title>
<ellipse fill="#b2dfee" stroke="#b2dfee" cx="809.6725" cy="-90" rx="75.898" ry="18"/>
<text text-anchor="middle" x="809.6725" y="-85.8" font-family="Times,serif" font-size="14.00" fill="#000000">Sun Microsystems</text>
</g>
<!-- Oracle -->
<g id="node10" class="node">
<title>Oracle</title>
<ellipse fill="#b2dfee" stroke="#b2dfee" cx="809.6725" cy="-18" rx="33.8422" ry="18"/>
<text text-anchor="middle" x="809.6725" y="-13.8" font-family="Times,serif" font-size="14.00" fill="#000000">Oracle</text>
</g>
<!-- Sun Microsystems&#45;&gt;Oracle -->
<g id="edge6" class="edge">
<title>Sun Microsystems&#45;&gt;Oracle</title>
<path fill="none" stroke="#000000" d="M809.6725,-71.8314C809.6725,-64.131 809.6725,-54.9743 809.6725,-46.4166"/>
<polygon fill="#000000" stroke="#000000" points="813.1726,-46.4132 809.6725,-36.4133 806.1726,-46.4133 813.1726,-46.4132"/>
</g>
<!-- Palm -->
<g id="node11" class="node">
<title>Palm</title>
<ellipse fill="#b2dfee" stroke="#b2dfee" cx="931.6725" cy="-90" rx="28.0736" ry="18"/>
<text text-anchor="middle" x="931.6725" y="-85.8" font-family="Times,serif" font-size="14.00" fill="#000000">Palm</text>
</g>
<!-- 3com -->
<g id="node12" class="node">
<title>3com</title>
<ellipse fill="#b2dfee" stroke="#b2dfee" cx="931.6725" cy="-18" rx="29.5104" ry="18"/>
<text text-anchor="middle" x="931.6725" y="-13.8" font-family="Times,serif" font-size="14.00" fill="#000000">3com</text>
</g>
<!-- Palm&#45;&gt;3com -->
<g id="edge7" class="edge">
<title>Palm&#45;&gt;3com</title>
<path fill="none" stroke="#000000" d="M931.6725,-71.8314C931.6725,-64.131 931.6725,-54.9743 931.6725,-46.4166"/>
<polygon fill="#000000" stroke="#000000" points="935.1726,-46.4132 931.6725,-36.4133 928.1726,-46.4133 935.1726,-46.4132"/>
</g>
</g>
</svg>
